<mxfile host="app.diagrams.net" modified="2023-06-18T19:22:14.798Z" agent="Mozilla/5.0 (Windows NT 10.0; Win64; x64) AppleWebKit/537.36 (KHTML, like Gecko) Chrome/114.0.0.0 Safari/537.36" etag="RmbGzWyLc4vhYNF-7OB5" version="21.5.0" type="device">
  <diagram name="Page-1" id="FKkSwifRdfH13nXB7E_o">
    <mxGraphModel dx="2085" dy="726" grid="1" gridSize="10" guides="1" tooltips="1" connect="1" arrows="1" fold="1" page="1" pageScale="1" pageWidth="850" pageHeight="1100" math="0" shadow="0">
      <root>
        <mxCell id="0" />
        <mxCell id="1" parent="0" />
        <mxCell id="CVYfE7rliHMy5G_aCXRQ-5" value="" style="rounded=0;whiteSpace=wrap;html=1;" vertex="1" parent="1">
          <mxGeometry x="50" y="190" width="500" height="580" as="geometry" />
        </mxCell>
        <mxCell id="CVYfE7rliHMy5G_aCXRQ-6" value="AV" style="text;html=1;strokeColor=none;fillColor=none;align=center;verticalAlign=middle;whiteSpace=wrap;rounded=0;" vertex="1" parent="1">
          <mxGeometry x="60" y="200" width="60" height="30" as="geometry" />
        </mxCell>
        <mxCell id="CVYfE7rliHMy5G_aCXRQ-7" value="Autonomous_Driving ()" style="ellipse;whiteSpace=wrap;html=1;" vertex="1" parent="1">
          <mxGeometry x="650" y="250" width="310" height="120" as="geometry" />
        </mxCell>
        <mxCell id="CVYfE7rliHMy5G_aCXRQ-8" value="Idle" style="rounded=1;whiteSpace=wrap;html=1;" vertex="1" parent="1">
          <mxGeometry x="70" y="230" width="110" height="50" as="geometry" />
        </mxCell>
        <mxCell id="CVYfE7rliHMy5G_aCXRQ-9" value="Vehicle_Driving" style="rounded=1;whiteSpace=wrap;html=1;" vertex="1" parent="1">
          <mxGeometry x="260" y="280" width="120" height="60" as="geometry" />
        </mxCell>
        <mxCell id="CVYfE7rliHMy5G_aCXRQ-15" style="edgeStyle=orthogonalEdgeStyle;rounded=0;orthogonalLoop=1;jettySize=auto;html=1;entryX=1;entryY=0.5;entryDx=0;entryDy=0;" edge="1" parent="1" source="CVYfE7rliHMy5G_aCXRQ-11" target="CVYfE7rliHMy5G_aCXRQ-14">
          <mxGeometry relative="1" as="geometry" />
        </mxCell>
        <mxCell id="CVYfE7rliHMy5G_aCXRQ-16" value="Image_Classification" style="edgeLabel;html=1;align=center;verticalAlign=middle;resizable=0;points=[];" vertex="1" connectable="0" parent="CVYfE7rliHMy5G_aCXRQ-15">
          <mxGeometry x="-0.5908" y="1" relative="1" as="geometry">
            <mxPoint x="-37" y="-1" as="offset" />
          </mxGeometry>
        </mxCell>
        <mxCell id="CVYfE7rliHMy5G_aCXRQ-11" value="Image_Classification()" style="ellipse;whiteSpace=wrap;html=1;" vertex="1" parent="1">
          <mxGeometry x="650" y="390" width="310" height="120" as="geometry" />
        </mxCell>
        <mxCell id="CVYfE7rliHMy5G_aCXRQ-12" value="" style="endArrow=classic;html=1;rounded=0;entryX=1;entryY=0.5;entryDx=0;entryDy=0;exitX=0;exitY=0.5;exitDx=0;exitDy=0;" edge="1" parent="1" source="CVYfE7rliHMy5G_aCXRQ-7" target="CVYfE7rliHMy5G_aCXRQ-9">
          <mxGeometry width="50" height="50" relative="1" as="geometry">
            <mxPoint x="400" y="370" as="sourcePoint" />
            <mxPoint x="450" y="320" as="targetPoint" />
          </mxGeometry>
        </mxCell>
        <mxCell id="CVYfE7rliHMy5G_aCXRQ-13" value="Path_Detection" style="edgeLabel;html=1;align=center;verticalAlign=middle;resizable=0;points=[];" vertex="1" connectable="0" parent="CVYfE7rliHMy5G_aCXRQ-12">
          <mxGeometry x="-0.6729" y="2" relative="1" as="geometry">
            <mxPoint x="-47" y="-2" as="offset" />
          </mxGeometry>
        </mxCell>
        <mxCell id="CVYfE7rliHMy5G_aCXRQ-26" style="edgeStyle=orthogonalEdgeStyle;rounded=0;orthogonalLoop=1;jettySize=auto;html=1;" edge="1" parent="1" source="CVYfE7rliHMy5G_aCXRQ-14" target="CVYfE7rliHMy5G_aCXRQ-25">
          <mxGeometry relative="1" as="geometry" />
        </mxCell>
        <mxCell id="CVYfE7rliHMy5G_aCXRQ-14" value="Image_Identification" style="rounded=1;whiteSpace=wrap;html=1;" vertex="1" parent="1">
          <mxGeometry x="260" y="420" width="120" height="60" as="geometry" />
        </mxCell>
        <mxCell id="CVYfE7rliHMy5G_aCXRQ-22" style="edgeStyle=orthogonalEdgeStyle;rounded=0;orthogonalLoop=1;jettySize=auto;html=1;" edge="1" parent="1" source="CVYfE7rliHMy5G_aCXRQ-17" target="CVYfE7rliHMy5G_aCXRQ-8">
          <mxGeometry relative="1" as="geometry" />
        </mxCell>
        <mxCell id="CVYfE7rliHMy5G_aCXRQ-17" value="User_Information_Update" style="rounded=1;whiteSpace=wrap;html=1;" vertex="1" parent="1">
          <mxGeometry x="245" y="670" width="150" height="60" as="geometry" />
        </mxCell>
        <mxCell id="CVYfE7rliHMy5G_aCXRQ-18" value="" style="endArrow=classic;html=1;rounded=0;exitX=1;exitY=0.5;exitDx=0;exitDy=0;entryX=0.5;entryY=0;entryDx=0;entryDy=0;" edge="1" parent="1" source="CVYfE7rliHMy5G_aCXRQ-8" target="CVYfE7rliHMy5G_aCXRQ-9">
          <mxGeometry width="50" height="50" relative="1" as="geometry">
            <mxPoint x="400" y="470" as="sourcePoint" />
            <mxPoint x="450" y="420" as="targetPoint" />
            <Array as="points">
              <mxPoint x="320" y="255" />
            </Array>
          </mxGeometry>
        </mxCell>
        <mxCell id="CVYfE7rliHMy5G_aCXRQ-19" value="" style="endArrow=classic;html=1;rounded=0;exitX=0.5;exitY=1;exitDx=0;exitDy=0;entryX=0.5;entryY=0;entryDx=0;entryDy=0;" edge="1" parent="1" source="CVYfE7rliHMy5G_aCXRQ-9" target="CVYfE7rliHMy5G_aCXRQ-14">
          <mxGeometry width="50" height="50" relative="1" as="geometry">
            <mxPoint x="400" y="470" as="sourcePoint" />
            <mxPoint x="320" y="390" as="targetPoint" />
          </mxGeometry>
        </mxCell>
        <mxCell id="CVYfE7rliHMy5G_aCXRQ-24" style="edgeStyle=orthogonalEdgeStyle;rounded=0;orthogonalLoop=1;jettySize=auto;html=1;entryX=0.109;entryY=-0.001;entryDx=0;entryDy=0;entryPerimeter=0;" edge="1" parent="1" source="CVYfE7rliHMy5G_aCXRQ-23" target="CVYfE7rliHMy5G_aCXRQ-5">
          <mxGeometry relative="1" as="geometry" />
        </mxCell>
        <mxCell id="CVYfE7rliHMy5G_aCXRQ-23" value="" style="ellipse;whiteSpace=wrap;html=1;aspect=fixed;fillColor=#0d0c0c;" vertex="1" parent="1">
          <mxGeometry x="-60" y="100" width="30" height="30" as="geometry" />
        </mxCell>
        <mxCell id="CVYfE7rliHMy5G_aCXRQ-27" style="edgeStyle=orthogonalEdgeStyle;rounded=0;orthogonalLoop=1;jettySize=auto;html=1;entryX=0.5;entryY=0;entryDx=0;entryDy=0;" edge="1" parent="1" source="CVYfE7rliHMy5G_aCXRQ-25" target="CVYfE7rliHMy5G_aCXRQ-17">
          <mxGeometry relative="1" as="geometry" />
        </mxCell>
        <mxCell id="CVYfE7rliHMy5G_aCXRQ-25" value="Mode_Management" style="rounded=1;whiteSpace=wrap;html=1;" vertex="1" parent="1">
          <mxGeometry x="260" y="540" width="120" height="60" as="geometry" />
        </mxCell>
      </root>
    </mxGraphModel>
  </diagram>
</mxfile>
